<?xml version="1.0" standalone="no"?>
<!DOCTYPE svg PUBLIC "-//W3C//DTD SVG 20010904//EN"
 "http://www.w3.org/TR/2001/REC-SVG-20010904/DTD/svg10.dtd">
<svg version="1.0" xmlns="http://www.w3.org/2000/svg"
 width="442.000000pt" height="345.000000pt" viewBox="0 0 442.000000 345.000000"
 preserveAspectRatio="xMidYMid meet">

<g transform="translate(0.000000,345.000000) scale(0.100000,-0.100000)"
fill="#000000" stroke="none">
<path d="M2492 2333 c3 -10 110 -338 238 -729 l234 -711 235 -163 c130 -90
242 -163 249 -164 7 -1 120 73 251 164 l238 165 237 720 c130 397 236 724 236
728 0 4 -105 7 -232 7 l-233 0 -245 -730 c-135 -401 -247 -730 -250 -730 -3 0
-115 328 -250 730 l-245 730 -234 0 c-217 0 -233 -1 -229 -17z"/>
</g>
</svg>
