<svg width="256" height="55" viewBox="0 0 256 55" fill="none" xmlns="http://www.w3.org/2000/svg">
<path d="M107.965 22.2307H115.274V24.5023H110.549V26.8345H115.23V29.0367H110.549V31.4037H115.274V33.6752H107.965V22.2307ZM124.218 24.6063L124.409 24.641V33.6752H121.817V22.2307H125.354L129.993 31.2476L129.802 31.2823V22.2307H132.394V33.6752H128.839L124.218 24.6063ZM144.364 27.2767H150.199V28.005C150.199 28.8257 150.06 29.5916 149.783 30.3026C149.511 31.0135 149.121 31.6377 148.612 32.1753C148.104 32.7128 147.497 33.1319 146.792 33.4325C146.087 33.733 145.306 33.8833 144.451 33.8833C143.566 33.8833 142.763 33.733 142.041 33.4325C141.324 33.1261 140.705 32.7013 140.185 32.158C139.665 31.6146 139.266 30.9846 138.989 30.2679C138.711 29.5454 138.573 28.7708 138.573 27.9443C138.573 27.1235 138.711 26.3548 138.989 25.638C139.266 24.9155 139.665 24.2855 140.185 23.748C140.705 23.2046 141.324 22.7827 142.041 22.4821C142.763 22.1758 143.566 22.0226 144.451 22.0226C145.173 22.0226 145.809 22.1007 146.358 22.2567C146.913 22.4128 147.39 22.6209 147.789 22.881C148.188 23.1411 148.526 23.4272 148.803 23.7393C149.081 24.0456 149.312 24.3462 149.497 24.641L147.035 25.8028C146.798 25.4386 146.474 25.1207 146.063 24.8491C145.659 24.5774 145.121 24.4416 144.451 24.4416C143.983 24.4416 143.552 24.5341 143.159 24.719C142.772 24.904 142.436 25.1583 142.153 25.482C141.87 25.7999 141.65 26.1727 141.494 26.6004C141.344 27.0224 141.269 27.4703 141.269 27.9443C141.269 28.424 141.344 28.8749 141.494 29.2968C141.65 29.7188 141.87 30.0916 142.153 30.4153C142.436 30.7389 142.772 30.9933 143.159 31.1782C143.552 31.3574 143.983 31.447 144.451 31.447C144.861 31.447 145.234 31.395 145.569 31.2909C145.905 31.1869 146.194 31.0366 146.436 30.8401C146.685 30.6436 146.878 30.4124 147.017 30.1465C147.162 29.8748 147.248 29.5772 147.277 29.2535H144.364V27.2767ZM156.277 22.2307H163.586V24.5023H158.861V26.8345H163.542V29.0367H158.861V31.4037H163.586V33.6752H156.277V22.2307ZM172.53 24.6063L172.721 24.641V33.6752H170.129V22.2307H173.666L178.305 31.2476L178.114 31.2823V22.2307H180.706V33.6752H177.151L172.53 24.6063ZM193.786 29.0714H189.832V33.6752H187.249V22.2307H189.832V26.8085H193.786V22.2307H196.361V33.6752H193.786V29.0714ZM206.623 22.2307H209.198L213.715 33.6752H210.95L210.117 31.3776H205.713L204.872 33.6752H202.097L206.623 22.2307ZM206.58 29.1061H209.259L207.932 25.3519H207.906L206.58 29.1061ZM219.168 22.2307H223.832C224.497 22.2307 225.089 22.3694 225.609 22.6469C226.13 22.9243 226.54 23.326 226.841 23.852C227.147 24.3722 227.3 24.9936 227.3 25.7161C227.3 26.4386 227.17 27.031 226.91 27.4934C226.656 27.9501 226.349 28.294 225.991 28.5252C225.633 28.7506 225.3 28.8864 224.994 28.9327L227.777 33.6752H224.864L222.384 29.1321H221.76V33.6752H219.168V22.2307ZM221.76 27.3374H222.904C223.367 27.3374 223.771 27.2247 224.118 26.9993C224.465 26.7738 224.638 26.375 224.638 25.8028C224.638 25.2306 224.468 24.8346 224.127 24.615C223.786 24.3896 223.384 24.2768 222.922 24.2768H221.76V27.3374ZM234.166 22.2307H236.758V33.6752H234.166V22.2307ZM247.061 22.2307H249.636L254.153 33.6752H251.387L250.555 31.3776H246.151L245.31 33.6752H242.535L247.061 22.2307ZM247.018 29.1061H249.697L248.37 25.3519H248.344L247.018 29.1061Z" fill="white"/>
<path d="M32.0416 0H51.2666L59.9367 6.40832V16.9632L51.2666 20.1674H32.0416V27.5181H59.9367L51.2666 33.9264H32.0416L23.3715 27.5181V16.9632L32.0416 13.7591H51.2666V6.40832H32.0416H23.3715L32.0416 0Z" fill="white"/>
<path d="M65.0256 48.2509L74.2612 20.7328H83.3082L74.2612 48.2509L65.0256 54.6592L55.7839 48.2509L46.743 20.7328H55.7839L65.0256 48.2509Z" fill="#00949A" fill-opacity="0.8"/>
<path d="M65.0256 48.2509L74.2612 20.7328H83.3082L74.2612 48.2509L65.0256 54.6592L55.7839 48.2509L46.743 20.7328H55.7839L65.0256 48.2509Z" fill="#00949A" fill-opacity="0.8"/>
<path d="M0 27.1411L8.67009 20.7328H36.5651L27.8951 27.1411H8.67009V34.4919H27.8951L36.5651 37.696V48.2509L27.8951 54.6592H0L8.67009 48.2509H27.8951V40.9002H8.67009L0 37.696V27.1411Z" fill="#00949A" fill-opacity="0.8"/>
<line x1="93.8631" y1="9.98944" x2="93.8631" y2="49.1933" stroke="#00949A" stroke-opacity="0.8" stroke-width="1.50784"/>
</svg>
